<svg xmlns="http://www.w3.org/2000/svg" viewBox="0 0 1920 1080"><defs><style>.cls-1,.cls-2{fill:#1abc9c;stroke:#1abc9c;}.cls-1,.cls-2,.cls-3,.cls-4{stroke-miterlimit:10;}.cls-2,.cls-4{stroke-width:2px;}.cls-3,.cls-4{fill:#fff;stroke:#fff;}</style></defs><title>tochki</title><g id="Layer_3" data-name="Layer 3"><circle class="cls-1" cx="535.59" cy="177.13" r="10.85"/><circle class="cls-1" cx="708.15" cy="105.62" r="10.85"/><line class="cls-2" x1="534" y1="171" x2="708" y2="106"/><line class="cls-2" x1="515" y1="440" x2="535.59" y2="177.13"/><line class="cls-2" x1="535.59" y1="177.13" x2="378" y2="300"/><line class="cls-2" x1="708.15" y1="105.62" x2="515" y2="440"/><circle class="cls-1" cx="164.15" cy="46.62" r="10.85"/><circle class="cls-1" cx="190.15" cy="293.62" r="10.85"/><circle class="cls-1" cx="25.15" cy="286.62" r="10.85"/><circle class="cls-1" cx="379.15" cy="298.62" r="10.85"/><circle class="cls-1" cx="41.15" cy="444.62" r="10.85"/><path class="cls-1" d="M9.15,747.46A10.85,10.85,0,1,0,0,730.81v11.6A10.83,10.83,0,0,0,9.15,747.46Z"/><circle class="cls-1" cx="301.15" cy="530.62" r="10.85"/><circle class="cls-1" cx="284.15" cy="728.62" r="10.85"/><circle class="cls-1" cx="115.15" cy="926.62" r="10.85"/><line class="cls-2" x1="536" y1="177" x2="164" y2="47"/><line class="cls-2" x1="505.87" x2="536" y2="177"/><line class="cls-2" x1="536" y1="176" x2="330"/><line class="cls-2" x1="536" y1="177" x2="190" y2="294"/><line class="cls-2" x1="301" y1="531" x2="536" y2="177"/><line class="cls-2" x1="164" y1="47" x2="251"/><line class="cls-2" x1="190" y1="294" x2="164.59" y2="46.13"/><line class="cls-2" x1="164.59" y1="46.13" x2="164"/><line class="cls-2" x1="165" y1="46" x2="79"/><line class="cls-2" x1="225" y1="-1" x2="165" y2="46"/><line class="cls-2" x1="165" y1="45" x2="90"/><line class="cls-2" x1="165" y1="46" y2="112.76"/><line class="cls-2" x1="25" y1="287" x2="165" y2="46"/><line class="cls-2" x1="282" y1="729" x2="41" y2="445"/><line class="cls-2" x1="190.59" y1="294.13" x2="41" y2="442"/><line class="cls-2" x1="189" y1="291" x2="25" y2="287"/><line class="cls-2" x1="379" y1="299" x2="165" y2="46"/><line class="cls-2" x1="191" y1="293" y2="139.67"/><line class="cls-2" x1="191" y1="294" y2="352.77"/><line class="cls-2" x1="41" y1="445" x2="379" y2="299"/><line class="cls-2" x1="189" y1="294" x2="379" y2="299"/><line class="cls-2" x1="41" y1="444" x2="25" y2="287"/><line class="cls-2" x1="301" y1="531" x2="41" y2="444"/><line class="cls-2" x1="515" y1="440" x2="371" y2="304"/><line class="cls-2" x1="303" y1="531" x2="379" y2="299"/><line class="cls-2" x1="300" y1="531" x2="189" y2="294"/><line class="cls-2" x1="515" y1="440" x2="300" y2="531"/><line class="cls-2" x1="23" y1="284" x2="0.01" y2="270.86"/><line class="cls-2" x1="25" y1="286" y2="297.36"/><line class="cls-2" x1="25" y1="286" y2="308.73"/><line class="cls-2" x1="27" y1="287" y2="203.47"/><line class="cls-2" x1="303" y1="531" x2="515" y2="440"/><line class="cls-2" y1="421.85" x2="43" y2="445"/><line class="cls-2" x1="9" y1="737" x2="43" y2="445"/><line class="cls-2" x1="300" y1="531" x2="282" y2="729"/><line class="cls-2" x1="254" y1="850" x2="283.59" y2="729.13"/><line class="cls-2" x1="283.59" y1="729.13" y2="871"/><line class="cls-2" x1="284" y1="729" x2="12" y2="737"/><line class="cls-2" x1="9" y1="737" x2="300" y2="531"/><line class="cls-2" x1="115" y1="927" x2="9" y2="736"/><line class="cls-2" x1="115" y1="927" x2="284" y2="729"/><line class="cls-2" x1="-0.11" y1="696.24" x2="9" y2="736"/><line class="cls-2" y1="768.73" x2="9" y2="736"/><line class="cls-2" x1="359.59" y1="1080" x2="278" y2="732"/><line class="cls-2" x1="158.06" y1="1080" x2="115" y2="927"/><line class="cls-2" x1="265.31" y1="1080.16" x2="115" y2="927"/><line class="cls-2" y1="900.46" x2="115" y2="927"/><line class="cls-2" y1="1080" x2="115" y2="927"/><line class="cls-2" x1="119.72" y1="1080" y2="940.01"/></g><g id="black"><circle class="cls-3" cx="207" cy="224" r="9"/><circle class="cls-3" cx="418" cy="312" r="9"/><circle class="cls-3" cx="242" cy="104" r="9"/><circle class="cls-3" cx="105" cy="48" r="9"/><circle class="cls-3" cx="87" cy="230" r="9"/><circle class="cls-3" cx="467" cy="59" r="9"/><circle class="cls-3" cx="18" cy="549" r="9"/><path class="cls-3" d="M13,404a9,9,0,0,0-13-8.05v16.11A9,9,0,0,0,13,404Z"/><circle class="cls-3" cx="195" cy="340" r="9"/><circle class="cls-3" cx="586" cy="56" r="9"/><circle class="cls-3" cx="367" cy="585" r="9"/><circle class="cls-3" cx="220" cy="555" r="9"/><circle class="cls-3" cx="141" cy="695" r="9"/><circle class="cls-3" cx="254" cy="666" r="9"/><circle class="cls-3" cx="486" cy="650" r="9"/><circle class="cls-3" cx="255" cy="847" r="9"/><circle class="cls-3" cx="413" cy="831" r="9"/><circle class="cls-3" cx="206" cy="1055" r="9"/><circle class="cls-3" cx="361" cy="947" r="9"/><circle class="cls-3" cx="93" cy="863" r="9"/><line class="cls-4" x1="105" y1="44" x2="105"/><line class="cls-4" x1="105" y1="48" x2="181"/><line class="cls-4" x1="87" y1="228" x2="105" y2="48"/><line class="cls-4" x1="107" y1="48" x2="192"/><line class="cls-4" x1="207" y1="224" x2="105" y2="48"/><line class="cls-4" x1="242" y1="104" x2="105" y2="48"/><line class="cls-4" x1="42" x2="105" y2="48"/><line class="cls-4" x1="105" y1="48" x2="16"/><line class="cls-4" x1="105" y1="48" y2="85.57"/><line class="cls-4" y1="172.09" x2="105" y2="48"/><line class="cls-4" x1="242" y1="104" x2="292"/><line class="cls-4" x1="244" y1="104" x2="358"/><line class="cls-4" x1="207" y1="224" x2="242" y2="104"/><line class="cls-4" x1="242" y1="104" x2="418" y2="312"/><line class="cls-4" x1="244" y1="104" x2="467" y2="59"/><line class="cls-4" x1="467" y1="55" x2="461"/><line class="cls-4" x1="467" y1="59" x2="503.77"/><line class="cls-4" x1="418" y1="312" x2="467" y2="59"/><line class="cls-4" x1="469" y1="59" x2="586" y2="56"/><line class="cls-4" x1="599.07" x2="586" y2="56"/><line class="cls-4" x1="557.06" y1="-0.01" x2="586" y2="56"/><line class="cls-4" x1="451" x2="467" y2="59"/><line class="cls-4" x1="467" y1="59" x2="403"/><line class="cls-4" x1="467" y1="59" x2="207" y2="224"/><line class="cls-4" x1="219" y1="555" x2="195" y2="340"/><line class="cls-4" x1="220" y1="555" x2="291" y2="296"/><line class="cls-4" x1="141" y1="695" x2="220" y2="555"/><line class="cls-4" x1="222" y1="555" x2="367" y2="585"/><line class="cls-4" x1="254" y1="666" x2="367" y2="585"/><line class="cls-4" x1="486" y1="650" x2="220" y2="555"/><line class="cls-4" x1="4" y1="404" x2="220" y2="555"/><line class="cls-4" x1="220" y1="555" x2="18" y2="549"/><line class="cls-4" x1="220" y1="555" x2="254" y2="666"/><line class="cls-4" x1="486" y1="650" x2="367" y2="585"/><circle class="cls-3" cx="291" cy="295" r="9"/><line class="cls-4" x1="291" y1="295" x2="417" y2="312"/><line class="cls-4" x1="4" y1="404" x2="195" y2="340"/><line class="cls-4" x1="418" y1="312" x2="207" y2="225"/><line class="cls-4" x1="367" y1="585" x2="291" y2="295"/><line class="cls-4" x1="207" y1="225" x2="291" y2="295"/><line class="cls-4" x1="291" y1="295" x2="87" y2="230"/><line class="cls-4" x1="291" y1="295" x2="195" y2="340"/><line class="cls-4" x1="18" y1="549" x2="195" y2="340"/><line class="cls-4" x1="87" y1="229" x2="242" y2="104"/><line class="cls-4" y1="256.7" x2="195" y2="340"/><line class="cls-4" x1="89" y1="229" x2="207" y2="225"/><line class="cls-4" x1="195" y1="340" x2="87" y2="229"/><line class="cls-4" x1="195" y1="340" x2="206" y2="224"/><line class="cls-4" y1="232.78" x2="87" y2="229"/><line class="cls-4" x1="87" y1="229" y2="201.58"/><line class="cls-4" x1="87" y1="229" x2="4" y2="404"/><circle class="cls-3" cx="18" cy="549" r="9"/><line class="cls-4" x1="18" y1="545" x2="5" y2="401"/><line class="cls-4" x1="18" y1="549" x2="141" y2="695"/><line class="cls-4" x1="0.09" y1="646.92" x2="20" y2="551"/><line class="cls-4" x1="-0.32" y1="648.89" x2="0.09" y2="646.92"/><line class="cls-4" x1="18" y1="549" x2="93" y2="863"/><line class="cls-4" x1="253" y1="667" x2="18" y2="549"/><line class="cls-4" x1="206" y1="1055" x2="255" y2="846"/><line class="cls-4" x1="255" y1="842" x2="254" y2="666"/><line class="cls-4" x1="255" y1="846" x2="486" y2="650"/><line class="cls-4" x1="361" y1="947" x2="255" y2="846"/><line class="cls-4" x1="257" y1="846" x2="413" y2="831"/><line class="cls-4" x1="141" y1="695" x2="255" y2="846"/><line class="cls-4" x1="255" y1="846" x2="93" y2="863"/><line class="cls-4" x1="486" y1="650" x2="254" y2="666"/><line class="cls-4" x1="206" y1="1051" x2="194.31" y2="1080"/><line class="cls-4" x1="206" y1="1055" x2="361" y2="947"/><line class="cls-4" x1="201.08" y1="1080" x2="206" y2="1055"/><line class="cls-4" x1="208" y1="1055" x2="243.83" y2="1080"/><line class="cls-4" x1="93" y1="862" x2="206" y2="1055"/><line class="cls-4" x1="206" y1="1055" y2="940.66"/><circle class="cls-3" cx="361" cy="947" r="9"/><line class="cls-4" x1="361" y1="947" x2="265.19" y2="1080.02"/><line class="cls-4" x1="361" y1="947" x2="413" y2="831"/><line class="cls-4" x1="486" y1="650" x2="413" y2="833"/><line class="cls-4" x1="94" y1="863" x2="361" y2="947"/><line class="cls-4" x1="361" y1="947" x2="369.09" y2="1080"/><line class="cls-4" x1="254" y1="666" x2="414" y2="831"/><line class="cls-4" x1="254" y1="669" x2="141" y2="695"/><line class="cls-4" x1="254" y1="669" x2="93" y2="863"/><line class="cls-4" x1="141" y1="695" x2="93" y2="863"/><line class="cls-4" x1="141" y1="694" y2="842"/><line class="cls-4" x1="93" y1="863" y2="888.45"/></g></svg>