<svg xmlns="http://www.w3.org/2000/svg" viewBox="0 0 276.1 91.07"><defs><style>.cls-1{fill:#fff;}</style></defs><title>Asset 2</title><g id="Layer_2" data-name="Layer 2"><g id="Layer_2-2" data-name="Layer 2"><path class="cls-1" d="M120.5,27.07c0-8.64,5.08-14.26,14.37-14.26s14.35,5.68,14.35,14.26v3c0,8.53-5,14.17-14.35,14.17S120.5,38.59,120.5,30.06Zm9.58,3c0,4.39,1.8,6.71,4.79,6.71s4.77-2.32,4.77-6.71V26.94c0-4.37-1.8-6.71-4.77-6.71s-4.79,2.34-4.79,6.71Z"/><path class="cls-1" d="M153.1,43.71V13.3h7L170.47,28h.36V13.3h8.58V43.71h-7L162,28.74h-.36v15Z"/><path class="cls-1" d="M205.06,43.71H184.54V13.3h9.36V36.05h11.16Z"/><path class="cls-1" d="M208.5,43.71V13.3h9.36V43.71Z"/><path class="cls-1" d="M223,43.71V13.3h7L240.36,28h.36V13.3h8.58V43.71h-7l-10.43-15h-.36v15Z"/><path class="cls-1" d="M276.1,43.71H254.42V13.3H276.1v7.2H263.67v4.79h11.61V31.8H263.67v4.72H276.1Z"/><path class="cls-1" d="M137.2,57.06V69.86a7.59,7.59,0,0,1-.94,3.83,6.26,6.26,0,0,1-2.72,2.53,9.45,9.45,0,0,1-4.25.89,8,8,0,0,1-5.72-1.95,7,7,0,0,1-2-5.35V57.06h3.25V69.57a5,5,0,0,0,1.14,3.61,4.68,4.68,0,0,0,3.49,1.16q4.57,0,4.57-4.8V57.06Z"/><path class="cls-1" d="M158.72,76.83h-4L145,61.08h-.11L145,62q.19,2.51.19,4.6V76.83h-2.93V57.06h3.92l9.69,15.67H156q0-.31-.11-2.27t-.08-3V57.06h3Z"/><path class="cls-1" d="M163.94,76.83V57.06h3.23V76.83Z"/><path class="cls-1" d="M183.66,57.06H187l-6.92,19.77h-3.41l-6.9-19.77h3.33l4.12,12.29q.32.88.69,2.26t.47,2.06q.18-1,.54-2.38t.59-2Z"/><path class="cls-1" d="M200.8,76.83H189.62V57.06H200.8V59.8h-8v5.38h7.45v2.7h-7.45v6.21h8Z"/><path class="cls-1" d="M208.31,68.94v7.9h-3.23V57.06h5.58q3.83,0,5.67,1.43a5.15,5.15,0,0,1,1.84,4.33q0,3.69-3.84,5.26l5.58,8.75h-3.68l-4.73-7.9Zm0-2.68h2.24a5.13,5.13,0,0,0,3.27-.84,3,3,0,0,0,1-2.49,2.68,2.68,0,0,0-1.1-2.41,6,6,0,0,0-3.3-.73h-2.14Z"/><path class="cls-1" d="M234.17,71.46a5,5,0,0,1-1.91,4.14A8.3,8.3,0,0,1,227,77.1a12.55,12.55,0,0,1-5.49-1V73a14.94,14.94,0,0,0,2.87,1,12.2,12.2,0,0,0,2.83.36,4.51,4.51,0,0,0,2.83-.73,2.38,2.38,0,0,0,.91-2,2.46,2.46,0,0,0-.84-1.88A12.6,12.6,0,0,0,226.67,68a9.15,9.15,0,0,1-3.81-2.5,5.29,5.29,0,0,1-1.11-3.38,4.73,4.73,0,0,1,1.76-3.89,7.29,7.29,0,0,1,4.72-1.42A13.86,13.86,0,0,1,233.87,58l-1,2.64a12.35,12.35,0,0,0-4.71-1.11,3.61,3.61,0,0,0-2.38.68A2.24,2.24,0,0,0,225,62a2.54,2.54,0,0,0,.32,1.32,3.31,3.31,0,0,0,1.07,1A18,18,0,0,0,229,65.68a14.67,14.67,0,0,1,3.19,1.69,5,5,0,0,1,1.49,1.77A5.33,5.33,0,0,1,234.17,71.46Z"/><path class="cls-1" d="M238,76.83V57.06h3.23V76.83Z"/><path class="cls-1" d="M253.28,76.83H250v-17h-5.81V57.06h14.86v2.77h-5.81Z"/><path class="cls-1" d="M267.7,66.08l4.68-9h3.52l-6.58,12.1v7.67h-3.25V69.27l-6.56-12.21H263Z"/><path class="cls-1" d="M45.54,0A45.54,45.54,0,1,0,91.07,45.54,45.54,45.54,0,0,0,45.54,0ZM64.4,53.35A19.12,19.12,0,0,1,59,64.19a19.37,19.37,0,0,1-13,5.42A18.64,18.64,0,0,1,26.45,53.35V29.5a6.61,6.61,0,0,1,13,0V52.26a6,6,0,0,0,11.93,0V29.5a6.61,6.61,0,0,1,13,0Z"/></g></g></svg>
